<svg id="Layer_1" data-name="Layer 1" xmlns="http://www.w3.org/2000/svg" xmlns:xlink="http://www.w3.org/1999/xlink" viewBox="0 0 60 60"><defs><style>.cls-1{fill:url(#Degradado_sin_nombre_24);}.cls-2{fill:url(#Degradado_sin_nombre_21);}.cls-3{fill:url(#Degradado_sin_nombre_19);}.cls-4{fill:url(#Degradado_sin_nombre_25);}</style><linearGradient id="Degradado_sin_nombre_24" x1="9.85" y1="19.97" x2="52.25" y2="19.97" gradientTransform="translate(1.44 -0.39) rotate(2.79)" gradientUnits="userSpaceOnUse"><stop offset="0" stop-color="#43c5ed"/><stop offset="0.42" stop-color="#43d4da"/><stop offset="1" stop-color="#43edb8"/></linearGradient><linearGradient id="Degradado_sin_nombre_21" x1="9.85" y1="23.11" x2="46.16" y2="23.11" gradientTransform="translate(1.44 -0.39) rotate(2.79)" gradientUnits="userSpaceOnUse"><stop offset="0" stop-color="#158cff"/><stop offset="0.32" stop-color="#219bfa"/><stop offset="0.94" stop-color="#3fc1ee"/><stop offset="1" stop-color="#43c5ed"/></linearGradient><linearGradient id="Degradado_sin_nombre_19" x1="9.85" y1="26.85" x2="40.1" y2="26.85" gradientTransform="translate(1.44 -0.39) rotate(2.79)" gradientUnits="userSpaceOnUse"><stop offset="0" stop-color="#0040f2"/><stop offset="0.26" stop-color="#0657f6"/><stop offset="0.75" stop-color="#117dfd"/><stop offset="1" stop-color="#158cff"/></linearGradient><linearGradient id="Degradado_sin_nombre_25" x1="21.87" y1="57.61" x2="21.87" y2="2.04" gradientTransform="translate(1.44 -0.39) rotate(2.79)" gradientUnits="userSpaceOnUse"><stop offset="0" stop-color="#0040f2"/><stop offset="0.18" stop-color="#323df2"/><stop offset="0.37" stop-color="#5d3bf2"/><stop offset="0.55" stop-color="#8039f2"/><stop offset="0.72" stop-color="#9838f2"/><stop offset="0.87" stop-color="#a737f2"/><stop offset="1" stop-color="#ac37f2"/></linearGradient></defs><title>favicon</title><path class="cls-1" d="M11.18,2.13l-.39,36.63a2.27,2.27,0,0,0,2.34,2.3l36.55-1a2.28,2.28,0,0,0,2.22-2.25l.36-34.45a2.28,2.28,0,0,0-2.34-2.3l-38.74,1"/><polyline class="cls-2" points="11.18 2.13 10.77 41.13 45.4 45.99 45.81 6.99 11.18 2.13"/><polyline class="cls-3" points="11.18 2.13 10.77 41.13 38.98 53.17 39.39 14.17 11.18 2.13"/><path class="cls-4" d="M11.18,2.13l-.4,38.42a1.27,1.27,0,0,0,.41,1L28.87,58.09a2.22,2.22,0,0,0,3.74-1.6l.35-33a2.27,2.27,0,0,0-.7-1.65L11.18,2.13"/></svg>