<?xml version="1.0" encoding="utf-8"?>
<!-- Generator: Adobe Illustrator 23.0.5, SVG Export Plug-In . SVG Version: 6.00 Build 0)  -->
<svg version="1.1" id="Layer_1" xmlns="http://www.w3.org/2000/svg" xmlns:xlink="http://www.w3.org/1999/xlink" x="0px" y="0px"
	 viewBox="0 0 43.3 13.8" style="enable-background:new 0 0 43.3 13.8;" xml:space="preserve">
<style type="text/css">
	.st0{fill:url(#SVGID_1_);}
	.st1{fill:url(#SVGID_2_);}
	.st2{fill:url(#SVGID_3_);}
	.st3{fill:url(#SVGID_4_);}
	.st4{fill:#457EFB;}
	.st5{font-family:'BebasNeueBold';}
	.st6{font-size:8px;}
	.st7{letter-spacing:1;}
</style>
<g>
	
		<linearGradient id="SVGID_1_" gradientUnits="userSpaceOnUse" x1="0.3947" y1="4.6352" x2="10.7459" y2="4.6352" gradientTransform="matrix(0.9988 4.862728e-02 -4.862728e-02 0.9988 0.3114 -9.105364e-03)">
		<stop  offset="0" style="stop-color:#43C5ED"/>
		<stop  offset="0.4183" style="stop-color:#43D4DA"/>
		<stop  offset="1" style="stop-color:#43EDB8"/>
	</linearGradient>
	<path class="st0" d="M0.7,0.3L0.6,9.2c0,0.3,0.3,0.6,0.6,0.6l8.9-0.2c0.3,0,0.5-0.3,0.5-0.5l0.1-8.4c0-0.3-0.3-0.6-0.6-0.6L0.7,0.3
		"/>
	
		<linearGradient id="SVGID_2_" gradientUnits="userSpaceOnUse" x1="0.3947" y1="5.4014" x2="9.2575" y2="5.4014" gradientTransform="matrix(0.9988 4.862728e-02 -4.862728e-02 0.9988 0.3114 -9.105364e-03)">
		<stop  offset="0" style="stop-color:#158CFF"/>
		<stop  offset="0.3225" style="stop-color:#219BFA"/>
		<stop  offset="0.9361" style="stop-color:#3FC1EE"/>
		<stop  offset="1" style="stop-color:#43C5ED"/>
	</linearGradient>
	<polyline class="st1" points="0.7,0.3 0.6,9.8 9,11 9.1,1.5 0.7,0.3 	"/>
	
		<linearGradient id="SVGID_3_" gradientUnits="userSpaceOnUse" x1="0.3947" y1="6.3142" x2="7.779" y2="6.3142" gradientTransform="matrix(0.9988 4.862728e-02 -4.862728e-02 0.9988 0.3114 -9.105364e-03)">
		<stop  offset="0" style="stop-color:#0040F2"/>
		<stop  offset="0.2627" style="stop-color:#0657F6"/>
		<stop  offset="0.7459" style="stop-color:#117DFD"/>
		<stop  offset="1" style="stop-color:#158CFF"/>
	</linearGradient>
	<polyline class="st2" points="0.7,0.3 0.6,9.8 7.5,12.7 7.6,3.2 0.7,0.3 	"/>
	
		<linearGradient id="SVGID_4_" gradientUnits="userSpaceOnUse" x1="3.3299" y1="13.8222" x2="3.3299" y2="0.2572" gradientTransform="matrix(0.9988 4.862728e-02 -4.862728e-02 0.9988 0.3114 -9.105364e-03)">
		<stop  offset="0" style="stop-color:#0040F2"/>
		<stop  offset="0.181" style="stop-color:#323DF2"/>
		<stop  offset="0.3666" style="stop-color:#5D3BF2"/>
		<stop  offset="0.5464" style="stop-color:#8039F2"/>
		<stop  offset="0.7161" style="stop-color:#9838F2"/>
		<stop  offset="0.8717" style="stop-color:#A737F2"/>
		<stop  offset="1" style="stop-color:#AC37F2"/>
	</linearGradient>
	<path class="st3" d="M0.7,0.3L0.6,9.6c0,0.1,0,0.2,0.1,0.2l4.3,4c0.3,0.3,0.9,0.1,0.9-0.4l0.1-8c0-0.2-0.1-0.3-0.2-0.4L0.7,0.3"/>
</g>
<text transform="matrix(1 0 0 1 12.9282 6.4963)"><tspan x="0" y="0" class="st4 st5 st6 st7">majalah </tspan><tspan x="0" y="7" class="st4 st5 st6">nusantara</tspan></text>
</svg>
